# xmcd CD database file
#
# Track frame offsets:
#	150
#	17127
#	40315
#	54615
#	76230
#	89425
#	111285
#	127892
#	146742
#	162032
#	181547
#	196260
#	208142
#	230810
#	242235
#	255090
#	264387
#	281920
#	301500
#	316107
#
# Disc length: 4387 seconds
#
# Revision: 0
# Processed by: cddbd v1.5.1PL0 Copyright (c) Steve Scherf et al.
# Submitted via: CDex 1.51
#
DISCID=0b112114
DTITLE=Sarah Vaughan - Sarah Vaughan at Mister Kelly's comprete sessions
DYEAR=1957
DGENRE=Jazz
TTITLE0=September in the rain
TTITLE1=Willow weep for me
TTITLE2=Just one of those things
TTITLE3=Be anything but darling be mine
TTITLE4=Thou swell
TTITLE5=Stairway to the stars
TTITLE6=Honeysucle rose
TTITLE7=Just a gigolo
TTITLE8=How high the moon
TTITLE9=Dream
TTITLE10=I'm gonna sit right down and write myself a letter
TTITLE11=It's got to be love
TTITLE12=Alone
TTITLE13=If this isn't love
TTITLE14=Embraceable you
TTITLE15=Lucy in love
TTITLE16=Dancing in the dark
TTITLE17=Poor butterfly
TTITLE18=Sometimes I'm happy
TTITLE19=I cover the waterfront
EXTD=YEAR: 1957
EXTT0=
EXTT1=
EXTT2=
EXTT3=
EXTT4=
EXTT5=
EXTT6=
EXTT7=
EXTT8=
EXTT9=
EXTT10=
EXTT11=
EXTT12=
EXTT13=
EXTT14=
EXTT15=
EXTT16=
EXTT17=
EXTT18=
EXTT19=
PLAYORDER=
